<?xml version="1.0" encoding="utf-8"?>
<!-- Generator: Adobe Illustrator 18.1.1, SVG Export Plug-In . SVG Version: 6.00 Build 0)  -->
<!DOCTYPE svg PUBLIC "-//W3C//DTD SVG 1.1//EN" "http://www.w3.org/Graphics/SVG/1.1/DTD/svg11.dtd">
<svg version="1.1"
	 id="svg2" xmlns:dc="http://purl.org/dc/elements/1.1/" xmlns:cc="http://creativecommons.org/ns#" xmlns:rdf="http://www.w3.org/1999/02/22-rdf-syntax-ns#" xmlns:svg="http://www.w3.org/2000/svg" xmlns:sodipodi="http://sodipodi.sourceforge.net/DTD/sodipodi-0.dtd" xmlns:inkscape="http://www.inkscape.org/namespaces/inkscape" sodipodi:docname="loud_bicycle_logo.svg" inkscape:version="0.91 r13725"
	 xmlns="http://www.w3.org/2000/svg" xmlns:xlink="http://www.w3.org/1999/xlink" x="0px" y="0px" viewBox="-35 59.2 576 243.8"
	 enable-background="new -35 59.2 576 243.8" xml:space="preserve">
<sodipodi:namedview  fit-margin-top="0" showgrid="false" bordercolor="#666666" fit-margin-left="0" inkscape:cy="-193.3676" inkscape:cx="-122.8572" borderopacity="1.0" inkscape:zoom="0.35" pagecolor="#ffffff" id="base" fit-margin-bottom="0" fit-margin-right="0" inkscape:window-maximized="1" inkscape:window-y="-4" inkscape:current-layer="layer1" inkscape:document-units="px" inkscape:pageopacity="0.0" inkscape:window-x="-4" inkscape:window-height="1056" inkscape:window-width="1695" inkscape:pageshadow="2">
	</sodipodi:namedview>
<g id="layer1" transform="translate(-16.42863,-34.301225)" inkscape:label="Layer 1" inkscape:groupmode="layer">
	<g id="g4144" transform="matrix(1.25,0,0,-1.25,-118.57137,578.4651)" inkscape:label="loud.bicycle.logo.final">
		<g id="g4146" transform="translate(108,263.3525)">
			<path id="path4148" inkscape:connector-curvature="0" fill="#FF6C36" d="M-28-13v83.4h20.3V4.5h32.3V-13H-28z"/>
		</g>
		<g id="g4150">
			<g>
				<defs>
					<rect id="SVGID_1_" x="-85.6" y="-21.5" width="792" height="612"/>
				</defs>
				<clipPath id="SVGID_2_">
					<use xlink:href="#SVGID_1_"  overflow="visible"/>
				</clipPath>
				<g id="g4152" clip-path="url(#SVGID_2_)">
					<g id="g4158" transform="translate(563.0986,285.5107)">
						<path id="path4160" inkscape:connector-curvature="0" fill="#FF6C36" d="M-119-17.4c-1.7-4.1-4.1-7.7-7.2-10.6
							c-3.1-2.9-6.9-5.2-11.4-6.9c-4.4-1.7-9.4-2.5-14.8-2.5c-5.5,0-10.4,0.8-14.8,2.5c-4.4,1.6-8.1,3.9-11.2,6.9
							c-3.1,2.9-5.4,6.5-7.1,10.6c-1.7,4.1-2.5,8.7-2.5,13.7v51.9h20V-2.1c0-2.3,0.3-4.4,0.9-6.5c0.6-2,1.5-3.9,2.7-5.5
							c1.2-1.6,2.8-2.9,4.8-3.8c2-0.9,4.4-1.4,7.2-1.4c2.8,0,5.2,0.5,7.2,1.4c2,0.9,3.6,2.2,4.9,3.8c1.3,1.6,2.2,3.4,2.7,5.5
							c0.5,2,0.8,4.2,0.8,6.5v50.3h20.1V-3.7C-116.5-8.7-117.3-13.3-119-17.4"/>
					</g>
					<g id="g4162" transform="translate(657.7969,315.7578)">
						<path id="path4164" inkscape:connector-curvature="0" fill="#FF6C36" d="M-138-23.5c0,4.7-0.8,8.6-2.3,11.7
							c-1.5,3.1-3.6,5.6-6.1,7.4c-2.6,1.8-5.5,3.2-8.7,3.9c-3.3,0.8-6.6,1.2-10.1,1.2h-10V-48h9.5c3.6,0,7.1,0.4,10.4,1.2
							c3.3,0.8,6.3,2.2,8.8,4.1c2.6,1.9,4.6,4.4,6.1,7.5C-138.7-32-138-28.1-138-23.5 M-117-23.5c0-7.3-1.4-13.6-4.1-18.9
							c-2.7-5.3-6.3-9.7-10.7-13.1c-4.4-3.4-9.4-5.9-15-7.5c-5.6-1.6-11.2-2.4-17-2.4h-31.1V18h30.1c5.9,0,11.7-0.7,17.4-2.1
							c5.7-1.4,10.8-3.7,15.3-6.8c4.5-3.2,8.1-7.4,10.8-12.8C-118.4-9-117-15.6-117-23.5"/>
					</g>
					<g id="g4166" transform="translate(407.4473,280.124)">
						<path id="path4168" inkscape:connector-curvature="0" fill="#FF6C36" d="M-87.9-16.4c14.8,35.8-2.2,76.9-38,91.7l-6.7-16.2
							C-105.7,48-93,17.2-104.1-9.6L-87.9-16.4z M-172.9-38.1c-26.9,11.1-39.6,41.9-28.5,68.8l-16.2,6.7
							c-14.8-35.8,2.2-76.9,38-91.7C-179.6-54.3-172.9-38.1-172.9-38.1z"/>
					</g>
					<g id="g4170" transform="translate(204.7744,364.0771)">
						<path id="path4172" inkscape:connector-curvature="0" fill="#FF6C36" d="M-47.4-33.1c-22.3-53.7,3.3-115.4,57-137.6l6.7,16.2
							C-28.4-136-49.7-84.6-31.1-39.9L-47.4-33.1z M83.5,7.6c44.8-18.5,66-69.9,47.5-114.7l16.2-6.7C169.5-60,144,1.6,90.3,23.9
							L83.5,7.6L83.5,7.6z"/>
					</g>
					<g id="g4174" transform="translate(363.2109,313.6924)">
						<path id="path4176" inkscape:connector-curvature="0" fill="#FF6C36" d="M-79-23.1c0,16.3-13.2,29.4-29.4,29.4
							c-16.3,0-29.4-13.2-29.4-29.4c0-16.3,13.2-29.4,29.4-29.4C-92.2-52.5-79-39.3-79-23.1"/>
					</g>
					<g id="g4178" transform="translate(347.8213,207.1289)">
						<path id="path4180" inkscape:connector-curvature="0" fill="#656569" d="M-76-1.8c0,1.5-0.6,2.6-1.7,3.1
							c-1.1,0.6-2.7,0.9-4.5,0.9h-4.9v-8.4h5c0.7,0,1.4,0.1,2.1,0.2c0.7,0.1,1.4,0.3,2,0.6c0.6,0.3,1.1,0.7,1.5,1.3
							C-76.2-3.4-76-2.7-76-1.8 M-77.2,12.8c0,1.2-0.5,2.1-1.4,2.7c-0.9,0.6-2.3,0.9-4.2,0.9h-4.3V8.8h4.7c1.7,0,2.9,0.3,3.8,1
							C-77.6,10.5-77.2,11.4-77.2,12.8 M-67.1-2.6c0-2-0.4-3.7-1.2-5c-0.8-1.4-1.8-2.5-3.1-3.3c-1.3-0.8-2.8-1.4-4.5-1.8
							c-1.7-0.4-3.4-0.5-5.1-0.5h-14.6v36.6h14.6c1.4,0,2.9-0.1,4.3-0.4c1.5-0.3,2.8-0.8,4-1.5c1.2-0.7,2.2-1.7,2.9-2.9
							c0.8-1.2,1.1-2.7,1.1-4.6c0-2-0.6-3.7-1.7-5c-1.1-1.3-2.5-2.3-4.3-2.9V5.9c1-0.2,2-0.5,2.9-1c0.9-0.5,1.7-1.1,2.4-1.8
							c0.7-0.7,1.2-1.6,1.6-2.5C-67.3-0.3-67.1-1.4-67.1-2.6"/>
					</g>
					<path id="path4182" inkscape:connector-curvature="0" fill="#656569" d="M296.8,230.5h8.9v-36.6h-8.9V230.5z"/>
					<g id="g4184" transform="translate(445.2021,193.6094)">
						<path id="path4186" inkscape:connector-curvature="0" fill="#656569" d="M-95.4,0.9c-2.4-1.1-5.1-1.6-8.2-1.6
							c-2.8,0-5.4,0.5-7.8,1.4c-2.4,0.9-4.5,2.2-6.2,3.9c-1.8,1.7-3.1,3.7-4.1,6.1c-1,2.4-1.5,5-1.5,7.8c0,2.9,0.5,5.6,1.5,8
							c1,2.4,2.4,4.4,4.2,6.1c1.8,1.7,3.9,3,6.3,3.8c2.4,0.9,5,1.3,7.8,1.3c2.6,0,5.1-0.5,7.6-1.4c2.5-0.9,4.5-2.2,6.1-4l-6-6
							c-0.8,1.1-1.9,2-3.3,2.5c-1.3,0.6-2.7,0.8-4.1,0.8c-1.5,0-3-0.3-4.3-0.9c-1.3-0.6-2.4-1.4-3.3-2.3c-0.9-1-1.7-2.2-2.2-3.5
							c-0.5-1.4-0.8-2.8-0.8-4.5c0-1.7,0.3-3.2,0.8-4.5c0.5-1.4,1.2-2.6,2.1-3.5c0.9-1,2-1.7,3.3-2.3c1.3-0.6,2.7-0.8,4.2-0.8
							c1.8,0,3.3,0.3,4.6,1c1.3,0.7,2.4,1.6,3.1,2.7l6.1-5.8C-91.1,3.5-93.1,2-95.4,0.9"/>
					</g>
					<g id="g4188" transform="translate(491.7324,212.1631)">
						<path id="path4190" inkscape:connector-curvature="0" fill="#656569" d="M-104.7-2.8v-15.5h-8.8v15.5l-13.7,21.1h10.7
							l7.8-13.5l7.8,13.5h10.3L-104.7-2.8z"/>
					</g>
					<g id="g4192" transform="translate(556.2656,193.6094)">
						<path id="path4194" inkscape:connector-curvature="0" fill="#656569" d="M-117.7,0.9c-2.4-1.1-5.1-1.6-8.2-1.6
							c-2.8,0-5.4,0.5-7.8,1.4c-2.4,0.9-4.5,2.2-6.2,3.9c-1.8,1.7-3.1,3.7-4.1,6.1c-1,2.4-1.5,5-1.5,7.8c0,2.9,0.5,5.6,1.5,8
							c1,2.4,2.4,4.4,4.2,6.1c1.8,1.7,3.9,3,6.3,3.8c2.4,0.9,5,1.3,7.8,1.3c2.6,0,5.1-0.5,7.6-1.4c2.5-0.9,4.5-2.2,6.1-4l-6-6
							c-0.8,1.1-1.9,2-3.3,2.5c-1.3,0.6-2.7,0.8-4.1,0.8c-1.5,0-3-0.3-4.3-0.9c-1.3-0.6-2.4-1.4-3.3-2.3c-0.9-1-1.7-2.2-2.2-3.5
							c-0.5-1.4-0.8-2.8-0.8-4.5c0-1.7,0.3-3.2,0.8-4.5c0.5-1.4,1.2-2.6,2.1-3.5c0.9-1,2-1.7,3.3-2.3c1.3-0.6,2.7-0.8,4.2-0.8
							c1.8,0,3.3,0.3,4.6,1c1.3,0.7,2.4,1.6,3.1,2.7l6.1-5.8C-113.3,3.5-115.3,2-117.7,0.9"/>
					</g>
					<g id="g4196" transform="translate(581.3691,192.8027)">
						<path id="path4198" inkscape:connector-curvature="0" fill="#656569" d="M-122.7,1.1v36.6h8.9V8.8h14.1V1.1H-122.7z"/>
					</g>
					<g id="g4200" transform="translate(628.2197,192.8027)">
						<path id="path4202" inkscape:connector-curvature="0" fill="#656569" d="M-132,1.1v36.6h24.6v-7.4h-16.1v-6.9h15.2v-7.1h-15.2
							V8.6h17V1.1H-132z"/>
					</g>
				</g>
			</g>
		</g>
	</g>
</g>
</svg>
