<?xml version="1.0" encoding="UTF-8" standalone="no"?>
<!-- Created with Inkscape (http://www.inkscape.org/) -->

<svg
   width="680.1709"
   height="680.17078"
   viewBox="0 0 179.96189 179.96186"
   version="1.1"
   id="svg2730"
   xml:space="preserve"
   xmlns="http://www.w3.org/2000/svg"
   xmlns:svg="http://www.w3.org/2000/svg"><defs
     id="defs2727" /><g
     id="layer1"
     transform="translate(-54.41507,115.42966)"><path
       style="display:none;fill:#ecc32e;fill-opacity:0;stroke:#000000;stroke-width:1;stroke-opacity:1"
       d="m 127.75424,67.398311 c -0.88368,-0.883682 -0.8999,-0.940972 -0.91786,-3.241146 -0.0101,-1.287859 -0.0398,-7.282656 -0.0661,-13.32177 l -0.0479,-10.980208 -8.15112,-0.06999 c -8.99853,-0.07727 -9.01526,-0.08029 -9.81776,-1.771428 -0.33496,-0.705879 -0.41967,-1.847453 -0.41967,-5.655683 v -4.771297 l -9.85573,-0.09116 c -9.71857,-0.08989 -9.87782,-0.100102 -11.44322,-0.733427 -2.19133,-0.886555 -4.58444,-3.274883 -5.43872,-5.427845 -0.89272,-2.249826 -0.90668,-6.449198 -0.0288,-8.652306 1.13609,-2.8510264 4.33406,-5.4742194 7.24022,-5.9389334 l 1.00539,-0.160769 0.0117,-3.075037 c 0.006,-1.69127 0.002,-4.980038 -0.009,-7.308371 -0.0219,-4.51879 0.33625,-9.7413756 0.8164,-11.9062496 2.51388,-11.334371 9.30778,-20.147989 19.42127,-25.194897 5.37152,-2.680543 11.35872,-3.880023 17.85938,-3.577993 l 2.77812,0.12907 0.0139,-2.21455 c 0.0179,-2.84827 0.71345,-4.52709 2.56573,-6.19246 2.1885,-1.96764 2.55938,-2.01751 14.2729,-1.91897 11.35487,0.0955 11.10538,0.0565 13.29788,2.07751 1.63079,1.50321 2.37489,3.32226 2.38514,5.83079 l 0.008,2.01141 4.5256,0.17073 c 5.33259,0.20118 8.01172,0.62701 11.61399,1.84598 10.7515,3.638176 19.24416,12.066973 22.64537,22.475083 1.6227,4.965642 2.01749,8.084738 2.05047,16.1999626 0.0106,2.619375 0.0246,6.086737 0.031,7.705246 l 0.0117,2.942746 1.00539,0.160769 c 2.90616,0.464714 6.10413,3.087907 7.24023,5.9389334 0.8779,2.203108 0.86394,6.40248 -0.0288,8.652306 -0.85429,2.152962 -3.24739,4.54129 -5.43872,5.427845 -1.56541,0.633325 -1.72466,0.643533 -11.44323,0.733427 l -9.85573,0.09116 v 4.727913 c 0,2.600352 -0.11785,5.037878 -0.26189,5.41673 -0.14404,0.378849 -0.57814,0.981914 -0.96468,1.340141 l -0.70281,0.651322 h -8.13659 -8.1366 l -0.18275,1.81981 c -0.10052,1.000897 -0.15528,5.793163 -0.1217,10.649478 0.0336,4.856319 0.0442,10.061967 0.0236,11.568107 l -0.0374,2.738438 -0.89958,0.899583 -0.89959,0.899584 H 146.9625 128.65333 Z"
       id="path50782" /><g
       id="g55122"><circle
         style="fill:#688f51;fill-opacity:1;fill-rule:evenodd;stroke-width:20.0001"
         id="path2931-7"
         cx="144.39601"
         cy="-25.448713"
         r="89.980934" /><path
         style="fill:#f6e266;fill-opacity:1;fill-rule:evenodd;stroke-width:19.9999"
         d="m 199.66015,-22.053182 c -4.00833,0.964052 -5.6935,-1.638652 -6.95426,-10.740788 -1.14708,-8.281146 -1.67565,-9.603463 -6.60475,-16.522306 -4.8982,-6.875462 -6.04866,-7.878404 -13.40845,-11.688873 -8.29771,-4.296074 -9.69282,-6.018084 -7.86374,-9.706261 1.51339,-3.051658 5.04433,-3.221228 11.04137,-0.530257 9.9796,4.478008 19.75851,14.667662 24.06937,25.080256 2.54103,6.137752 4.18157,16.375256 3.22429,20.120657 -0.78605,3.075094 -1.07433,3.403212 -3.50383,3.987572 z"
         id="path11662-2" /><path
         style="fill:#f6e266;fill-opacity:1;fill-rule:evenodd;stroke-width:19.9999"
         d="m 217.15167,-19.110332 c -2.98386,-1.162192 -3.0947,-1.501171 -3.3937,-10.31001 -0.87703,-25.837499 -16.63487,-45.995583 -42.68749,-54.607669 -2.17464,-0.718806 -2.73895,-1.429176 -3.14117,-3.954026 -1.20276,-7.550587 7.7118,-7.308247 21.37471,0.581125 9.86302,5.69516 15.77565,11.030942 22.17102,20.007962 2.89003,4.056677 6.32841,9.991214 7.64083,13.187873 5.29345,12.893149 6.85227,32.213846 2.83024,35.079186 -0.94042,0.66997 -3.09793,0.676973 -4.79444,0.01556 z"
         id="path11664-5" /><path
         style="fill:#f1d333;fill-opacity:1;stroke:#f1d333;stroke-width:2;stroke-dasharray:none;stroke-opacity:1"
         d="m 141.45355,-50.615746 c 0.5785,-0.82593 0.52146,-2.21279 -0.11729,-2.85154 -0.50901,-0.50901 -0.88195,-0.52917 -9.78959,-0.52917 -8.90764,0 -9.28057,0.0202 -9.78958,0.52917 -0.63875,0.63875 -0.6958,2.02561 -0.11729,2.85154 l 0.41188,0.58804 h 9.49499 9.495 z"
         id="path50792" /><path
         style="fill:#f1d333;fill-opacity:1;stroke-width:1"
         d="m 182.27892,-9.0834329 c -0.11436,-11.3760911 -0.2034,-12.0378271 -2.26226,-16.8133951 -3.6359,-8.433541 -10.88917,-14.57788 -20.15957,-17.077423 l -3.04271,-0.820393 -23.27892,-0.08725 c -14.94414,-0.05601 -24.22782,0.0117 -25.92917,0.189064 -9.660314,1.007178 -17.639404,6.023821 -22.736654,14.295077 -2.30584,3.741663 -4.00123,9.163224 -4.13929,13.236718 -0.0271,0.800364 -0.0345,4.997317 -0.0165,9.3265621 l 0.0328,7.8713536 h 50.816994 50.817 z"
         id="path50790" /><path
         style="fill:#f1d333;fill-opacity:1;stroke-width:1"
         d="m 189.48604,15.628268 c 1.59325,-0.854474 1.98876,-1.651555 1.98876,-4.008056 0,-2.3565009 -0.39551,-3.1535819 -1.98876,-4.0080559 -0.88087,-0.472414 -2.94272,-0.489861 -57.89525,-0.489861 -63.122214,0 -58.077124,-0.143264 -59.382134,1.686267 -0.85266,1.1953499 -0.8545,4.4253669 -0.003,5.6187969 1.30006,1.822561 -3.78952,1.678075 59.345354,1.684745 54.99776,0.0058 57.05426,-0.01138 57.93523,-0.483836 z"
         id="path50788" /><path
         id="path50788-0"
         style="fill:#ecc32e;fill-opacity:1;stroke-width:0.999996"
         d="m 89.09988,7.1333117 c -18.564937,0.04547 -16.659963,0.307854 -17.378965,1.68 -0.626371,1.1953493 -0.627416,4.4253503 -0.0019,5.6187793 0.712608,1.359921 -1.164459,1.624242 17.091973,1.6738 -0.613552,-2.468373 -0.789302,-5.539278 0.297622,-8.9725793 -0.0024,6e-6 -0.0063,-6e-6 -0.0087,0 z" /><path
         id="path50788-0-4"
         style="fill:#ecc32e;fill-opacity:1;stroke-width:0.999999"
         d="m 125.55733,-54.986514 c -3.82815,0.136999 -5.10132,0.575558 -5.34082,2.962587 0.28894,1.99086 0.46842,2.430953 1.61973,2.843589 0.71821,0.257413 2.50934,0.184665 3.6223,0.167695 -0.8072,-1.932237 -1.16535,-4.052636 0.10133,-5.973871 -5.8e-4,5e-6 -0.001,-3e-6 -0.003,0 z" /><path
         id="path50790-6-0"
         style="fill:#ecc32e;fill-opacity:1;stroke-width:1"
         d="m 119.83246,-43.97305 c -6.77396,0.02014 -11.2499,0.08307 -12.33672,0.196371 -9.660312,1.007177 -17.639347,6.024003 -22.736587,14.295251 -2.30584,3.741659 -4.00123,9.162914 -4.13929,13.236404 -0.0271,0.80037 -0.0345,4.99731 -0.0165,9.3265603 l 0.0326,7.87135005 h 12.12898 c 0.23223,-3.02818005 0.44483,-5.91310005 0.5979,-8.31112005 0.89914,-14.0867003 4.383185,-26.7432983 26.469697,-36.6148163 z" /></g></g></svg>
