<?xml version="1.0" encoding="UTF-8" standalone="no"?>
<!-- Created with Inkscape (http://www.inkscape.org/) -->

<svg
   width="401.91916"
   height="401.91916"
   viewBox="0 0 106.34111 106.34111"
   version="1.1"
   id="svg2730"
   xml:space="preserve"
   inkscape:export-filename="bell.svg"
   inkscape:export-xdpi="49.549999"
   inkscape:export-ydpi="49.549999"
   inkscape:version="1.2.1 (9c6d41e, 2022-07-14)"
   sodipodi:docname="bell_and_instructions.svg"
   xmlns:inkscape="http://www.inkscape.org/namespaces/inkscape"
   xmlns:sodipodi="http://sodipodi.sourceforge.net/DTD/sodipodi-0.dtd"
   xmlns="http://www.w3.org/2000/svg"
   xmlns:svg="http://www.w3.org/2000/svg"><sodipodi:namedview
     id="namedview2732"
     pagecolor="#ffffff"
     bordercolor="#000000"
     borderopacity="0.25"
     inkscape:showpageshadow="2"
     inkscape:pageopacity="0.0"
     inkscape:pagecheckerboard="0"
     inkscape:deskcolor="#d1d1d1"
     inkscape:document-units="mm"
     showgrid="false"
     inkscape:zoom="0.5946522"
     inkscape:cx="84.082763"
     inkscape:cy="175.73297"
     inkscape:window-width="1309"
     inkscape:window-height="709"
     inkscape:window-x="40"
     inkscape:window-y="25"
     inkscape:window-maximized="0"
     inkscape:current-layer="layer1" /><defs
     id="defs2727" /><g
     inkscape:label="Layer 1"
     inkscape:groupmode="layer"
     id="layer1"
     transform="translate(-37.27462,-96.405891)"><circle
       style="fill:#688f51;fill-opacity:1;fill-rule:evenodd;stroke-width:20"
       id="path2931"
       cx="90.445175"
       cy="149.57645"
       r="53.170555"
       inkscape:export-filename="bell.svg"
       inkscape:export-xdpi="49.549999"
       inkscape:export-ydpi="49.549999" /><path
       style="fill:#f1d333;fill-opacity:1;fill-rule:evenodd;stroke-width:20"
       d="m 90.018095,181.81598 c -2.896202,-0.75403 -3.468747,-4.33237 -2.588954,-6.79116 0.384261,-1.7837 -1.228291,-1.36523 -2.387802,-1.38005 -6.939491,-0.0532 -14.542608,0.11858 -21.469623,-0.27937 0.514422,-1.11229 1.715084,-2.95147 2.812884,-3.48415 13.392273,-0.0564 26.784547,-0.11279 40.17682,-0.16918 1.4076,-1.52687 3.23024,-3.18363 2.64594,-5.5 0.0837,-3.652 -3.30865,-3.92093 -6.13572,-3.54264 -10.208625,-0.12094 -20.425493,0.0981 -30.628669,-0.24803 -2.07109,-0.9657 -0.13322,-4.92376 -0.62546,-7.0959 0.335948,-5.50077 -0.362233,-11.42954 2.611281,-16.36788 2.231307,-4.29838 6.342119,-7.09258 10.505701,-9.2929 0.852048,-2.37464 -0.634074,-6.28123 2.276124,-8.18747 3.172535,-2.9094 8.77755,-1.30035 10.131097,2.73437 0.865406,2.4961 -1.302227,5.81213 2.315399,6.73488 0.727547,0.47875 2.294597,0.77047 3.136847,1.83898 1.49563,1.46773 3.45078,3.14236 4.67877,4.89253 1.32265,1.59875 2.00276,4.56429 2.65021,6.10756 -0.0218,2.50295 -1.72924,4.88569 -1.58875,7.62209 -0.29073,2.67791 1.32969,7.09311 1.67473,8.29814 -1.42466,-3.13297 -3.0931,-6.23745 -3.76134,-9.63743 1.72621,0.64538 2.61873,4.7442 3.50545,6.89242 0.89093,3.1076 1.58195,6.30017 3.43275,9.02023 1.67596,3.17745 3.75065,6.16833 5.13091,9.48842 -7.68256,0.30324 -15.37982,0.1295 -23.068946,0.17536 -0.01819,2.40746 1.132744,5.40596 -1.121622,7.14779 -1.19311,0.9336 -2.805717,1.68037 -4.308027,1.02339 z m 20.777595,-22.70266 c -0.28575,0.94413 -1.65639,-1.31014 0,0 z M 93.091466,125.7986 c 2.785954,-2.75124 -3.257866,-6.03254 -4.139749,-1.99933 -0.617809,2.25501 2.747328,4.16161 4.139749,1.99933 z"
       id="path11924"
       sodipodi:nodetypes="cssscssscccssccssssccssssscssccc" /><path
       style="fill:#000000;stroke-width:0.999999"
       d="m 119.16603,173.07551 c 0.008,-0.20508 0.0502,-0.24679 0.10636,-0.10635 0.0508,0.12707 0.0446,0.27891 -0.0139,0.33741 -0.0585,0.0585 -0.1001,-0.0455 -0.0925,-0.23106 z"
       id="path9261" /><path
       style="fill:#ecc32e;fill-opacity:1;fill-rule:evenodd;stroke-width:75.5905"
       d="m 285.17095,261.60416 c -1.15344,-2.61604 -2.45312,-5.02398 -2.88818,-5.35099 -0.43505,-0.32701 -1.73928,-2.73495 -2.89829,-5.35099 -1.78793,-4.03558 -2.14757,-8.90141 -2.37304,-32.10597 -0.14616,-15.04224 -0.61237,-29.22237 -1.03604,-31.51141 -1.36243,-7.36122 -5.54268,-18.83651 -9.74977,-26.76432 -2.2532,-4.24593 -3.7869,-7.71987 -3.40822,-7.71987 4.7696,0 21.07527,16.77121 26.08515,26.82991 1.93391,3.88285 3.80676,7.32727 4.16189,7.65428 0.35512,0.327 0.85317,1.3972 1.10677,2.37822 3.33501,12.90097 3.66488,16.70926 3.68222,42.51068 0.0106,15.72105 0.48349,27.6468 1.09636,27.6468 1.38366,0 0.12426,5.08885 -1.52816,6.17481 -0.68944,0.45309 -2.04307,0.18554 -3.00806,-0.59456 -1.36469,-1.10322 -1.56223,-1.098 -0.88905,0.0235 0.61178,1.01921 -0.17833,1.36777 -2.69547,1.18911 -2.91261,-0.20674 -3.94278,-1.11876 -5.65811,-5.0092 z"
       id="path10200"
       transform="matrix(0.26458333,0,0,0.26458333,31.611488,89.484283)" /><path
       style="fill:#ecc32e;fill-opacity:1;fill-rule:evenodd;stroke-width:75.5905"
       d="m 217.02809,157.79339 c -4.30268,-2.10412 -5.51143,-4.4346 -3.73261,-7.19649 0.82686,-1.28381 1.57295,-1.322 3.69019,-0.18889 3.75804,2.01124 16.00833,2.0475 18.40977,0.0545 1.65915,-1.37698 2.23382,-1.33698 3.83792,0.26712 6.33158,6.33158 -11.86533,12.12025 -22.20527,7.06378 z"
       id="path10202"
       transform="matrix(0.26458333,0,0,0.26458333,31.611488,89.484283)" /><path
       style="fill:#f6e266;fill-opacity:1;fill-rule:evenodd;stroke:#f6e266;stroke-width:7.55906;stroke-dasharray:none;stroke-opacity:1"
       d="m 137.55194,294.00741 c 2.09623,-4.08757 3.843,-7.96704 3.88173,-8.62105 0.0387,-0.65401 1.27437,-2.39308 2.7459,-3.86461 1.47152,-1.47152 2.67615,-3.34437 2.67695,-4.16188 8e-4,-0.81751 1.24204,-2.92883 2.75831,-4.6918 l 2.75685,-3.20542 67.84376,-0.0343 67.84375,-0.0343 2.00809,5.2581 c 2.74458,7.18661 3.05254,11.2366 1.19835,15.76003 -2.0325,4.95842 -5.08195,8.17865 -9.243,9.76068 -2.22425,0.84567 -27.41439,1.26652 -75.8066,1.26652 h -72.47541 z"
       id="path10342"
       transform="matrix(0.26458333,0,0,0.26458333,31.611488,89.484283)" /><path
       style="fill:#f6e266;fill-opacity:1;fill-rule:evenodd;stroke-width:75.5906"
       d="m 118.13481,264.44029 c -15.32363,-16.42208 -18.94114,-49.42114 -7.96194,-72.62926 6.96756,-14.72823 12.795,-18.99409 18.35364,-13.43545 3.71948,3.71948 3.40059,5.515 -3.24319,18.26123 -5.35591,10.27541 -5.8858,12.55687 -5.8858,25.34168 0,12.78482 0.52989,15.06628 5.8858,25.34169 6.77707,13.00194 6.98503,14.34279 2.81048,18.12071 -4.07043,3.68369 -5.74501,3.51544 -9.95899,-1.0006 z"
       id="path11658"
       transform="matrix(0.26458333,0,0,0.26458333,31.611488,89.484283)" /><path
       style="fill:#f6e266;fill-opacity:1;fill-rule:evenodd;stroke-width:75.5906"
       d="m 92.289057,282.9385 c -26.167633,-35.50103 -26.13634,-86.45447 0.07494,-122.02346 4.325579,-5.86986 6.20141,-7.15073 9.851093,-6.72662 3.07229,0.35701 4.9888,1.89933 6.01733,4.84244 1.26547,3.62109 0.48145,5.74916 -4.85437,13.17623 -21.186084,29.48948 -20.381,72.49342 1.91351,102.21093 4.69023,6.25184 5.01991,9.37843 1.37343,13.02491 -4.43308,4.43308 -8.795703,3.06614 -14.375933,-4.50443 z"
       id="path11660"
       transform="matrix(0.26458333,0,0,0.26458333,31.611488,89.484283)" /><path
       style="fill:#f6e266;fill-opacity:1;fill-rule:evenodd;stroke-width:75.5906"
       d="m 326.64226,267.10386 c -5.7382,-2.31175 -5.53159,-6.95993 0.85263,-19.18192 5.80839,-11.11963 6.31368,-13.19593 6.31368,-25.94357 0,-12.66768 -0.53283,-14.89511 -6.20994,-25.96019 -6.4006,-12.47518 -6.60634,-15.79446 -1.15966,-18.70943 4.50668,-2.41191 8.96964,0.45515 13.95601,8.9655 8.29772,14.16191 11.37716,35.12964 7.57959,51.60888 -2.2385,9.71377 -9.14713,23.65399 -13.57816,27.39799 -3.63805,3.07397 -4.27609,3.22395 -7.75415,1.82274 z"
       id="path11662"
       transform="matrix(0.26458333,0,0,0.26458333,31.611488,89.484283)" /><path
       style="fill:#f6e266;fill-opacity:1;fill-rule:evenodd;stroke-width:75.5906"
       d="m 345.45741,285.93008 c -2.6335,-4.01924 -2.4752,-4.52916 4.8291,-15.55531 21.42446,-32.34116 19.71723,-70.69766 -4.62484,-103.90663 -2.03186,-2.77199 -2.10305,-4.13149 -0.39625,-7.56745 5.10421,-10.27526 15.7882,-2.21727 25.61733,19.32091 7.09546,15.54797 9.67583,27.21718 9.67583,43.75689 0,7.4742 -0.96486,17.7209 -2.14415,22.77045 -4.75643,20.36642 -19.67352,45.33659 -27.08392,45.33659 -1.73269,0 -4.37558,-1.86995 -5.8731,-4.15545 z"
       id="path11664"
       transform="matrix(0.26458333,0,0,0.26458333,31.611488,89.484283)" /><path
       style="fill:#f4dd45;fill-opacity:1;fill-rule:evenodd;stroke-width:20"
       d="m 75.3361,173.35509 -11.670165,-0.22247 1.128107,-1.89099 1.128106,-1.89099 h 20.179906 20.179906 l 1.1142,-1.32415 c 1.62706,-1.93364 1.85751,-3.59657 0.80138,-5.78251 l -0.88825,-1.83847 2.04871,0.13442 2.04871,0.13443 3.52511,6.15078 c 1.93881,3.38293 3.45648,6.20898 3.3726,6.28012 -0.32647,0.27688 -31.914621,0.46054 -42.96832,0.24983 z"
       id="path11808" /><path
       style="fill:#ecc32e;fill-opacity:1;fill-rule:evenodd;stroke-width:20"
       d="m 87.364274,176.1874 c 0.0385,-3.09043 -0.331732,-2.84327 4.143497,-2.76609 2.112025,0.0364 3.926342,0.15252 4.031813,0.25799 0.236326,0.23632 0.319048,4.45891 0.08735,4.45888 -0.09177,0 -0.166851,-0.25029 -0.166851,-0.55618 0,-0.42281 -0.120034,-0.56075 -0.500555,-0.57527 -2.070285,-0.079 -6.580005,-0.0909 -6.896539,-0.0183 -0.2369,0.0543 -0.389321,0.2969 -0.389321,0.61954 0,0.29162 -0.07508,0.53024 -0.166852,0.53026 -0.09177,2e-5 -0.155914,-0.87784 -0.142544,-1.9508 z"
       id="path11892" /></g></svg>
