<svg fill="none" height="40" viewBox="0 0 40 40" width="40" xmlns="http://www.w3.org/2000/svg"><path d="m26.6665 20.0001h-16.66662c-2.76143 0-5-2.2386-5-5s2.23857-5 5-5m16.66662 10v-10m0 10v1.6667m0-11.6667v-1.66667m0 1.66667h-11.6666m-5.00002 0v-3.58063c0-.77367.96252-1.12974 1.46602-.54232l3.534 4.12295m-5.00002 0h5.00002m-5.83336 10 .16376.1365c1.0976.9147 1.4902 2.4272.9761 3.7603l-1.9981 5.1801c-.79094 2.0506.72245 4.2564 2.9203 4.2564 1.2726 0 2.4185-.7705 2.8987-1.949l2.2615-5.551m7.7777-5.8333-.9759 3.4157c-.4088 1.431-1.7168 2.4176-3.2051 2.4176h-3.5967m1.9444-5.8333-1.9444 5.8333m13.6111-8.3333v-5c0-1.3807-1.1193-2.5-2.5-2.5-.4603 0-.8334.3731-.8334.8333v8.3334c0 .4602.3731.8333.8334.8333 1.3807 0 2.5-1.1193 2.5-2.5zm3.3333-.8333h-2.0833c-.6904 0-1.25-.5597-1.25-1.25v-.8334c0-.6903.5596-1.25 1.25-1.25h2.0833c.9205 0 1.6667.7462 1.6667 1.6667s-.7462 1.6667-1.6667 1.6667z" stroke="#000" stroke-linecap="round" stroke-linejoin="round" stroke-width="2"/></svg>