<?xml version="1.0" encoding="UTF-8" standalone="no"?>
<!-- Created with Inkscape (http://www.inkscape.org/) -->

<svg
   width="432.51785mm"
   height="125.9965mm"
   viewBox="0 0 432.51785 125.9965"
   version="1.1"
   id="svg3663"
   xmlns="http://www.w3.org/2000/svg"
   xmlns:svg="http://www.w3.org/2000/svg">
  <defs
     id="defs3660" />
  <g
     id="layer1"
     transform="translate(112.43477,-85.501748)">
    <path
       style="fill:#000000;stroke:#ffffff;stroke-width:1.5;stroke-dasharray:none;stroke-opacity:1"
       d="m 92.89941,210.56214 c -0.6117,-0.12245 -1.36394,-0.35738 -1.67167,-0.52207 -0.79058,-0.4231 -2.59747,-3.31505 -2.78685,-4.46038 -0.25753,-1.55747 -1.90042,-8.16526 -2.70569,-10.8824 l -0.74493,-2.51354 -8.32164,-0.16295 c -4.5769,-0.0896 -14.23181,-0.17893 -21.45535,-0.19844 -12.10255,-0.0327 -23.75812,-0.0718 -24.24027,-0.49851 -0.28778,-0.25466 -4.1296,-4.45161 -8.53739,-9.32656 -4.40779,-4.87495 -10.46695,-11.30432 -13.46479,-14.2875 -2.99785,-2.98317 -8.12837,-8.40052 -11.40117,-12.03854 -3.27279,-3.63802 -8.66357,-9.57179 -11.97951,-13.18615 -3.31594,-3.61437 -6.19084,-6.82905 -6.38868,-7.14375 -0.19783,-0.3147 -0.62104,-1.82234 -0.94047,-3.35031 -0.92712,-4.43489 -5.14058,-21.01057 -6.18754,-24.34166 -0.52598,-1.67349 -1.19807,-3.43683 -1.49354,-3.91853 -1.39558,-2.27518 0.93417,-2.44658 -47.75127,-1.91577 l -29.33742,0.31986 -1.18868,-1.14538 c -4.42395,-4.26279 -5.17541,-8.09261 -2.23066,-11.36833 0.85304,-0.94891 1.77676,-1.62407 2.95983,-2.16337 2.77854,-1.2666 -3.47066,-1.39674 23.28333,-1.01692 22.57589,0.3205 29.20167,0.5738 39.45174,1.10421 14.55361,0.7531 20.07915,2.49367 24.56293,7.73741 2.80261,3.27764 3.66563,5.45539 5.89675,14.87986 0.72351,3.05621 1.43347,6.00323 1.57768,6.54894 l 0.2622,0.99219 h 116.3464 115.81724 l 1.53707,-6.54844 c 2.45498,-10.45908 3.43882,-12.91101 6.53701,-16.29213 3.7007,-4.03867 7.69094,-5.67568 16.52,-6.7774 3.80175,-0.47439 11.03314,-0.90378 32.17568,-1.4615 11.53866,-0.30437 28.6531,-0.43625 32.18344,-0.20227 3.30824,0.21926 3.93533,0.33929 5.42395,1.03821 3.30931,1.55375 4.72594,3.49755 4.72594,6.48458 0,2.2375 -0.84633,3.8519 -3.2938,6.28304 l -1.91802,1.90522 -28.81336,-0.31866 c -41.52298,-0.45922 -43.78786,-0.25773 -46.09048,0.67056 -1.26884,0.51152 -1.61454,0.96874 -2.40472,3.18024 -1.29524,3.62505 -4.18982,14.83399 -7.10591,27.51667 l -0.48668,2.11667 -5.69177,6.21804 c -3.13047,3.41992 -8.42171,9.25398 -11.75829,12.96458 -3.33661,3.7106 -9.11701,9.84217 -12.84536,13.62571 -3.72835,3.78354 -10.19483,10.63979 -14.36995,15.23613 l -7.59111,8.35696 -21.47956,0.17747 c -11.81375,0.0976 -31.56786,0.2116 -31.60958,0.25332 -0.24612,0.24612 -2.80068,9.61343 -3.11897,11.43694 -0.39028,2.23598 -1.35263,4.53101 -2.36532,5.64088 -1.37945,1.51182 -1.2155,1.49283 -13.26613,1.53631 -6.11187,0.022 -11.61297,-0.0601 -12.22466,-0.18254 z m -8.76499,-36.17162 c 0.0814,-4.36286 0.1296,-4.75528 0.67947,-5.52615 0.32554,-0.45639 1.06921,-1.02079 1.6526,-1.25421 2.33289,-0.93344 4.59972,-1.06475 18.12842,-1.05009 16.70433,0.0181 18.08151,0.2124 19.57414,2.7617 0.45233,0.77254 0.53809,1.50292 0.62585,5.33016 l 0.10169,4.43495 h 30.24631 20.19214 l 3.38966,-4.29948 c 6.37379,-8.08458 10.95259,-13.3089 13.09918,-14.94592 0.71421,-0.54466 1.90045,-1.70578 2.63609,-2.58026 0.73565,-0.87448 3.98693,-4.32841 7.22509,-7.67538 7.98346,-8.25174 10.20709,-10.89778 12.9196,-15.37382 1.47728,-2.4377 2.92423,-5.39497 2.7332,-5.58601 -0.76753,-0.76753 -31.83814,-1.11514 -88.40129,-1.29588 -66.45573,-0.21233 -132.36749,0.26661 -137.12031,1.09537 -0.4759,0.083 -0.85989,0.31088 -0.85989,0.51034 0,0.53704 1.92887,4.14146 3.52702,6.59084 2.40375,3.68406 5.5851,7.39445 11.81153,13.77571 3.3026,3.38473 6.634,6.91019 7.40311,7.83437 0.7691,0.92417 1.83606,1.99738 2.37102,2.38489 2.18562,1.58327 8.65571,9.00806 14.68617,16.85325 l 2.08465,2.71198 h 30.89515 20.31182 z"
       id="path8803" />
    <g
       id="g739"
       style="fill:#fbfbfb;fill-opacity:1"
       transform="translate(324.68645,495.03292)">
      <path
         d="m -224.79192,-298.48911 c 0.005,-0.23701 -0.33925,-0.57533 -0.76535,-0.75182 -1.28598,-0.53268 -3.22411,-2.66654 -4.09248,-4.5058 -0.67875,-1.43764 -0.81274,-2.04536 -0.81665,-3.70417 -0.003,-1.0914 0.0913,-2.46822 0.20868,-3.05958 0.19803,-0.9979 0.16331,-1.09801 -0.48285,-1.39242 -0.91042,-0.41482 -1.06122,-0.29088 -1.43049,1.17562 -1.25117,4.96884 0.76841,10.04094 5.11724,12.85172 l 1.58307,1.02319 0.33473,-0.60291 c 0.1841,-0.3316 0.33894,-0.79683 0.3441,-1.03383 z m 1.30641,-2.91585 c 0.15975,-0.45828 0.29046,-0.85918 0.29046,-0.89089 0,-0.0317 -0.47452,-0.37167 -1.05449,-0.75547 -0.66474,-0.43991 -1.30962,-1.20132 -1.74477,-2.06005 -0.58954,-1.1634 -0.67699,-1.63292 -0.59916,-3.21686 0.0903,-1.83762 0.0842,-1.85697 -0.66707,-2.1084 -0.93612,-0.31331 -1.14007,-0.0445 -1.37146,1.80751 -0.36122,2.89105 1.10009,5.78938 3.84218,7.62053 0.88408,0.59038 0.96936,0.56446 1.30431,-0.39637 z m 14.29722,-6.18879 c 0.0338,-3.34025 -1.36611,-6.56595 -3.80648,-8.77105 -1.15862,-1.04693 -3.28171,-2.38005 -3.42547,-2.15091 -0.20387,0.32496 -0.6947,1.62011 -0.63315,1.6707 0.0418,0.0344 0.571,0.37068 1.17594,0.74735 2.45883,1.53101 4.11501,4.01681 4.58009,6.87436 0.22904,1.40727 0.0459,3.62421 -0.39147,4.73832 -0.13399,0.34133 0.0395,0.54272 0.70654,0.82038 l 0.88412,0.36799 0.44686,-1.34954 c 0.24577,-0.74225 0.45413,-2.06867 0.46302,-2.9476 z m -10.04854,2.62053 c 1.61671,-0.95501 2.06291,-3.03152 0.99305,-4.62136 -2.03494,-3.02398 -6.82819,-0.64657 -5.68567,2.82003 0.62705,1.90256 2.98741,2.80862 4.69262,1.80133 z m 6.03065,-2.15876 c 0.0936,-1.3086 0.004,-2.21958 -0.31283,-3.17291 -0.49665,-1.49525 -2.17082,-3.56008 -3.4033,-4.19742 -0.75431,-0.39007 -0.83465,-0.38595 -1.16033,0.0594 -0.57346,0.78425 -0.40441,1.35888 0.57848,1.96634 1.78043,1.10037 2.94489,4.19461 2.28785,6.0794 -0.27578,0.7911 -0.24898,0.84792 0.5622,1.19228 0.4744,0.20139 0.95474,0.26123 1.08418,0.13505 0.12783,-0.1246 0.29151,-1.05258 0.36375,-2.06218 z"
         style="fill:#fbfbfb;fill-opacity:1;stroke-width:1"
         id="path723" />
    </g>
  </g>
</svg>
