<?xml version="1.0" encoding="UTF-8" standalone="no"?>
<!-- Created with Inkscape (http://www.inkscape.org/) -->

<svg
   width="46.300163mm"
   height="19.555191mm"
   viewBox="0 0 46.300163 19.555191"
   version="1.1"
   id="svg7407"
   xmlns="http://www.w3.org/2000/svg"
   xmlns:svg="http://www.w3.org/2000/svg">
  <defs
     id="defs7404">
    <clipPath
       id="clipPath4427-1-3-2-6"
       clipPathUnits="userSpaceOnUse">
      <path
         id="path4429-8-2-6-6"
         d="M 0,612 H 792 V 0 H 0 Z" />
    </clipPath>
  </defs>
  <g
     id="layer1"
     transform="translate(-80.674069,-138.72241)">
    <g
       id="g4626-84-7"
       transform="matrix(0.0657134,0,0,0.0657134,130.01106,-30.89646)"
       style="stroke-width:5.87875">
      <g
         id="g4419-1-8-6-0"
         transform="matrix(1.630967,0,0,-1.6309671,-750.79041,2791.5586)"
         style="fill:#ffffff;stroke-width:5.87875">
        <path
           d="M 0,0 V 78.167 H 18.991 V 16.45 H 49.246 V 0 Z"
           style="fill:#ffffff;fill-opacity:1;fill-rule:nonzero;stroke:none;stroke-width:5.87875"
           id="path4421-7-3-7-5" />
      </g>
      <g
         transform="matrix(1.630967,0,0,-1.6309671,-1044.3645,3238.4673)"
         id="g4423-1-6-6-6"
         style="fill:#ffffff;stroke-width:5.87875">
        <g
           id="g4425-2-2-0-9"
           clip-path="url(#clipPath4427-1-3-2-6)"
           style="fill:#ffffff;stroke-width:5.87875">
          <g
             id="g4431-0-9-6-5"
             transform="translate(521.3232,290.6338)"
             style="fill:#ffffff;stroke-width:5.87875">
            <path
               d="m 0,0 c -1.578,-3.869 -3.846,-7.185 -6.783,-9.943 -2.947,-2.758 -6.502,-4.915 -10.66,-6.452 -4.161,-1.549 -8.777,-2.326 -13.851,-2.326 -5.155,0 -9.791,0.777 -13.913,2.326 -4.126,1.537 -7.623,3.694 -10.489,6.452 -2.872,2.758 -5.081,6.074 -6.624,9.943 -1.55,3.862 -2.321,8.15 -2.321,12.859 v 48.689 h 18.769 V 14.406 c 0,-2.14 0.273,-4.16 0.827,-6.077 0.554,-1.911 1.402,-3.623 2.541,-5.136 1.141,-1.505 2.651,-2.7 4.525,-3.587 1.877,-0.878 4.139,-1.321 6.795,-1.321 2.645,0 4.911,0.443 6.788,1.321 1.876,0.887 3.403,2.082 4.58,3.587 1.176,1.513 2.023,3.225 2.545,5.136 0.513,1.917 0.765,3.937 0.765,6.077 V 61.548 H 2.377 V 12.859 C 2.377,8.15 1.585,3.862 0,0"
               style="fill:#ffffff;fill-opacity:1;fill-rule:nonzero;stroke:none;stroke-width:5.87875"
               id="path4433-7-3-3-5" />
          </g>
          <g
             id="g4435-3-4-9-2"
             transform="translate(592.3477,313.3184)"
             style="fill:#ffffff;stroke-width:5.87875">
            <path
               d="m 0,0 c 0,4.417 -0.718,8.078 -2.154,10.986 -1.435,2.906 -3.346,5.224 -5.742,6.956 -2.393,1.727 -5.115,2.961 -8.171,3.699 -3.051,0.734 -6.196,1.102 -9.432,1.102 h -9.386 v -45.705 h 8.939 c 3.386,0 6.644,0.386 9.77,1.158 3.13,0.776 5.887,2.043 8.28,3.809 2.396,1.763 4.307,4.117 5.742,7.066 C -0.718,-7.988 0,-4.344 0,0 m 19.652,0 c 0,-6.847 -1.269,-12.754 -3.809,-17.718 -2.537,-4.967 -5.891,-9.052 -10.05,-12.256 -4.156,-3.207 -8.851,-5.56 -14.068,-7.07 -5.237,-1.505 -10.527,-2.26 -15.906,-2.26 h -29.144 v 78.167 h 28.263 c 5.52,0 10.966,-0.645 16.341,-1.931 C -3.35,35.642 1.437,33.509 5.635,30.528 9.824,27.548 13.211,23.554 15.788,18.549 18.366,13.544 19.652,7.36 19.652,0"
               style="fill:#ffffff;fill-opacity:1;fill-rule:nonzero;stroke:none;stroke-width:5.87875"
               id="path4437-5-3-1-7" />
          </g>
          <g
             id="g4439-3-0-7-7"
             transform="translate(404.5859,286.5928)"
             style="fill:#ffffff;stroke-width:5.87875">
            <path
               d="M 0,0 C 13.906,33.567 -2.036,72.052 -35.605,85.956 L -41.898,70.763 C -16.723,60.334 -4.77,31.471 -15.194,6.291 Z m -79.657,-20.411 c -25.183,10.434 -37.135,39.294 -26.707,64.469 l -15.195,6.294 c -13.903,-33.573 2.036,-72.054 35.598,-85.951 z"
               style="fill:#ffffff;fill-opacity:1;fill-rule:nonzero;stroke:none;stroke-width:5.87875"
               id="path4441-0-5-78-2" />
          </g>
          <g
             id="g4443-5-4-4-9"
             transform="translate(252.5811,349.5576)"
             style="fill:#ffffff;stroke-width:5.87875">
            <path
               d="m 0,0 c -20.865,-50.386 3.055,-108.145 53.438,-129.018 l 6.294,15.205 C 17.748,-96.42 -2.191,-48.284 15.199,-6.296 Z m 122.718,38.236 c 41.977,-17.385 61.921,-65.525 44.526,-107.513 l 15.207,-6.298 C 203.32,-25.187 179.405,32.573 129.013,53.44 Z"
               style="fill:#ffffff;fill-opacity:1;fill-rule:nonzero;stroke:none;stroke-width:5.87875"
               id="path4445-3-8-6-9" />
          </g>
          <g
             id="g4447-6-9-0-1"
             transform="translate(371.4082,311.7695)"
             style="fill:#ffffff;stroke-width:5.87875">
            <path
               d="M 0,0 C 0,15.243 -12.36,27.601 -27.601,27.601 -42.844,27.601 -55.2,15.243 -55.2,0 c 0,-15.248 12.356,-27.598 27.599,-27.598 C -12.36,-27.598 0,-15.248 0,0"
               style="fill:#ffffff;fill-opacity:1;fill-rule:nonzero;stroke:none;stroke-width:5.87875"
               id="path4449-4-2-0-6" />
          </g>
        </g>
      </g>
    </g>
  </g>
</svg>
