<?xml version="1.0" encoding="UTF-8" standalone="no"?>
<!-- Created with Inkscape (http://www.inkscape.org/) -->

<svg
   width="401.91922"
   height="401.91922"
   viewBox="0 0 106.34113 106.34113"
   version="1.1"
   id="svg2730"
   xml:space="preserve"
   xmlns="http://www.w3.org/2000/svg"
   xmlns:svg="http://www.w3.org/2000/svg"><defs
     id="defs2727"><clipPath
       clipPathUnits="userSpaceOnUse"
       id="clipPath15385"><ellipse
         style="fill:#ffffff;fill-opacity:0.310413;fill-rule:evenodd;stroke:#fefced;stroke-width:0;stroke-dasharray:none;stroke-opacity:1"
         id="ellipse15387"
         cx="307.91794"
         cy="522.1864"
         rx="57.84193"
         ry="55.394768" /></clipPath></defs><g
     id="layer1"
     transform="translate(-301.46589,-476.80234)"><circle
       style="fill:#688f51;fill-opacity:1;fill-rule:evenodd;stroke-width:20"
       id="path2931-8-9"
       cx="354.63644"
       cy="529.9729"
       r="53.170555" /><path
       style="fill:#415a33;fill-opacity:1;stroke-width:1"
       d="m 349.89387,581.07237 c -0.54488,-0.0568 -1.2773,-0.17366 -1.62758,-0.25965 -0.35029,-0.086 -1.27376,-0.25177 -2.05218,-0.36841 -2.07457,-0.31084 -3.58604,-0.63274 -4.38741,-0.93437 -0.38921,-0.14651 -0.99424,-0.32531 -1.34453,-0.39734 -0.77582,-0.15956 -2.20023,-0.63422 -3.27287,-1.09064 -0.43786,-0.18632 -0.87236,-0.33876 -0.96555,-0.33876 -0.0932,0 -0.84948,-0.33884 -1.68065,-0.75299 -0.83117,-0.41415 -1.6386,-0.79794 -1.79428,-0.85287 -0.15568,-0.0549 -0.6015,-0.27691 -0.99071,-0.49327 -0.38921,-0.21637 -1.28084,-0.70037 -1.98141,-1.07557 -0.70057,-0.37519 -1.45741,-0.83643 -1.68187,-1.02497 -0.22446,-0.18854 -0.66558,-0.47415 -0.98028,-0.6347 -0.31469,-0.16055 -0.93822,-0.5874 -1.38563,-0.94855 -0.44741,-0.36117 -1.12083,-0.87854 -1.49649,-1.14972 -2.99412,-2.16139 -7.53573,-6.84243 -10.02614,-10.33394 -1.19024,-1.66871 -1.3196,-1.85535 -1.95067,-2.81456 -0.32708,-0.49714 -0.64249,-0.9748 -0.70092,-1.06146 -0.0584,-0.0867 -0.17039,-0.31679 -0.24881,-0.5114 -0.0784,-0.1946 -0.32957,-0.67226 -0.55812,-1.06147 -0.55585,-0.94661 -1.30033,-2.45405 -1.85228,-3.75053 -0.24854,-0.58381 -0.53447,-1.157 -0.63539,-1.27376 -0.10093,-0.11676 -0.28074,-0.56258 -0.3996,-0.99071 -0.11885,-0.42812 -0.38632,-1.22423 -0.59436,-1.76911 -0.88307,-2.31282 -1.92558,-6.39883 -2.18466,-8.56254 -0.0792,-0.66164 -0.2553,-1.52144 -0.39129,-1.91064 -0.42661,-1.22096 -0.3661,-12.95261 0.0733,-14.20676 0.174,-0.49665 0.31768,-1.16538 0.3193,-1.48606 0.002,-0.32069 0.0965,-0.99704 0.21079,-1.503 0.11431,-0.50597 0.30506,-1.39761 0.4239,-1.98142 0.11883,-0.58381 0.34243,-1.4436 0.49688,-1.91065 0.15445,-0.46704 0.62706,-1.90003 1.05025,-3.1844 0.4232,-1.28438 0.99957,-2.79801 1.28083,-3.36362 0.28127,-0.5656 0.60186,-1.28476 0.71242,-1.59812 0.11056,-0.31337 0.29834,-0.66707 0.41729,-0.78602 0.11895,-0.11895 0.25787,-0.38201 0.30871,-0.58457 0.0509,-0.20256 0.31497,-0.75538 0.58696,-1.22849 0.27199,-0.4731 0.58972,-1.05125 0.70607,-1.28477 0.40478,-0.81243 3.28296,-5.02907 4.34898,-6.37143 2.33249,-2.93715 7.43428,-7.76649 9.96756,-9.43528 0.1991,-0.13116 0.80782,-0.55949 1.35271,-0.95184 0.54489,-0.39235 1.34099,-0.90735 1.76912,-1.14444 0.42813,-0.23708 1.03317,-0.59 1.34453,-0.78425 0.31136,-0.19425 0.88456,-0.5098 1.27376,-0.70122 0.38921,-0.19142 0.80318,-0.40589 0.91995,-0.47662 0.89517,-0.5422 4.38716,-2.06382 5.37811,-2.3435 0.35029,-0.0989 0.82795,-0.2761 1.06147,-0.39387 0.23353,-0.11777 0.6475,-0.25615 0.91994,-0.30751 0.27245,-0.0514 0.8138,-0.21234 1.203,-0.35772 1.0308,-0.38504 2.36336,-0.70698 3.89206,-0.94031 0.73949,-0.11287 1.63113,-0.30512 1.98142,-0.4272 1.29944,-0.45293 10.39113,-0.69293 13.74058,-0.36273 2.33174,0.22987 9.6726,1.93222 10.52852,2.44156 0.15392,0.0916 0.56789,0.24668 0.91994,0.34461 0.80491,0.22392 1.79319,0.62907 3.68296,1.50982 1.63773,0.7633 1.68481,0.78792 3.37121,1.76347 0.64763,0.37464 1.39607,0.79317 1.66321,0.93006 1.11291,0.57033 4.18453,2.75814 6.04579,4.30622 0.90439,0.75223 5.44757,5.20651 6.10896,5.98944 1.32126,1.56407 1.9173,2.31182 1.9173,2.40534 0,0.058 0.30252,0.49448 0.67226,0.9699 0.36975,0.47543 0.98747,1.35926 1.37272,1.96407 0.38525,0.60482 0.83983,1.25888 1.01019,1.45349 0.17035,0.1946 0.35709,0.51304 0.41497,0.70764 0.0579,0.19461 0.21589,0.51305 0.35115,0.70765 0.13526,0.1946 0.29488,0.51304 0.35473,0.70765 0.0598,0.1946 0.22301,0.50011 0.3626,0.6789 0.13959,0.17881 0.29367,0.50656 0.34238,0.72836 0.0487,0.2218 0.21234,0.51527 0.36361,0.65217 0.15127,0.1369 0.27504,0.34567 0.27504,0.46394 0,0.11827 0.26513,0.72936 0.58918,1.35798 0.32405,0.62862 0.70025,1.49323 0.83599,1.92135 0.13575,0.42813 0.44994,1.31977 0.69821,1.98141 0.24826,0.66165 0.51527,1.52144 0.59335,1.91065 0.0781,0.38921 0.26032,0.97446 0.40496,1.30056 0.14464,0.32609 0.30396,0.93113 0.35404,1.34452 0.0501,0.4134 0.18199,1.07007 0.29313,1.45927 0.11115,0.38921 0.29486,1.32203 0.40826,2.07294 0.1134,0.75091 0.27412,1.544 0.35717,1.76242 0.53938,1.41868 0.54245,13.26416 0.004,14.6809 -0.0831,0.21871 -0.21684,0.85495 -0.2971,1.41387 -0.32329,2.25143 -0.91068,4.69783 -1.70522,7.10199 -0.15435,0.46705 -0.3694,1.13578 -0.47789,1.48606 -0.41209,1.33051 -0.82172,2.37745 -1.41208,3.609 -0.33583,0.70057 -0.65815,1.43298 -0.71628,1.62759 -0.0581,0.1946 -0.17605,0.44146 -0.26204,0.54857 -0.16169,0.20141 -1.18508,2.12285 -1.58895,2.98328 -0.40212,0.85671 -3.56874,5.47244 -4.44736,6.48257 -0.27245,0.31323 -0.65338,0.75157 -0.84653,0.9741 -0.19314,0.22253 -0.53149,0.6275 -0.75188,0.89995 -0.59758,0.73873 -2.6024,2.76535 -3.86774,3.90979 -2.21268,2.00126 -2.74768,2.45904 -2.87387,2.45904 -0.0706,0 -0.54518,0.33435 -1.05467,0.74302 -1.18141,0.94762 -1.53852,1.20238 -2.49378,1.77909 -0.42812,0.25847 -0.90578,0.58811 -1.06147,0.73253 -0.15568,0.14444 -0.45351,0.3049 -0.66185,0.35659 -0.20833,0.0517 -0.48888,0.21563 -0.62343,0.36432 -0.13456,0.14868 -0.30566,0.27033 -0.38024,0.27033 -0.0746,0 -0.68566,0.30954 -1.35797,0.68788 -0.67231,0.37834 -1.38161,0.73654 -1.57621,0.79602 -0.19461,0.0595 -0.92702,0.38253 -1.62759,0.71791 -0.70057,0.33538 -1.54175,0.67947 -1.86929,0.76465 -0.32754,0.0852 -0.62986,0.21043 -0.67183,0.27834 -0.042,0.0679 -0.41087,0.20209 -0.81977,0.2982 -0.40891,0.0961 -0.91543,0.26172 -1.1256,0.36802 -0.21017,0.10631 -0.71968,0.26473 -1.13224,0.35205 -0.41255,0.0873 -0.92616,0.24866 -1.14135,0.35853 -0.21518,0.10988 -0.85206,0.28625 -1.41529,0.39194 -7.63673,1.43302 -6.98637,1.35778 -11.51741,1.33239 -2.2463,-0.0126 -4.52998,-0.0694 -5.07487,-0.12618 z m 11.11007,-4.56652 c 1.44006,-0.19409 2.8412,-0.44671 3.11364,-0.56138 0.27245,-0.11468 0.87513,-0.25431 1.33931,-0.3103 0.46417,-0.056 1.15117,-0.22291 1.52668,-0.37092 0.3755,-0.14801 0.80987,-0.2691 0.96525,-0.2691 0.15539,0 0.58293,-0.15131 0.95009,-0.33622 0.36715,-0.18492 1.00647,-0.40814 1.4207,-0.49603 0.41422,-0.0879 1.24217,-0.3905 1.83988,-0.67246 0.59771,-0.28196 1.5644,-0.732 2.14821,-1.00009 0.58381,-0.26809 1.18885,-0.55866 1.34453,-0.64572 0.15568,-0.0871 0.51784,-0.27313 0.8048,-0.41349 0.28696,-0.14036 0.56026,-0.31755 0.60736,-0.39375 0.0471,-0.0762 0.35366,-0.26791 0.68126,-0.42603 1.07101,-0.51693 4.15441,-2.54353 5.12458,-3.36818 2.22302,-1.88958 4.63093,-4.11417 5.21442,-4.81745 0.29916,-0.36059 0.68129,-0.79475 0.84917,-0.9648 0.16788,-0.17005 0.46446,-0.51456 0.65906,-0.76556 0.1946,-0.25101 0.48935,-0.59134 0.655,-0.75628 0.36358,-0.36202 2.13368,-2.7072 2.52941,-3.35118 0.15568,-0.25334 0.37867,-0.62585 0.49552,-0.82779 0.11686,-0.20195 0.48404,-0.77386 0.81597,-1.27092 0.33191,-0.49705 0.64061,-1.05163 0.68597,-1.23238 0.0454,-0.18076 0.1757,-0.40601 0.28963,-0.50056 0.20301,-0.16849 1.03885,-1.83459 1.03885,-2.07078 0,-0.066 0.15922,-0.33574 0.35382,-0.59951 0.19461,-0.26377 0.35383,-0.56437 0.35383,-0.668 0,-0.10364 0.27729,-0.77591 0.61622,-1.49395 0.33891,-0.71804 0.66279,-1.56028 0.71971,-1.87164 0.0569,-0.31136 0.22241,-0.78902 0.36773,-1.06147 0.24026,-0.45044 0.36503,-0.86073 0.86079,-2.83059 0.0882,-0.35029 0.30857,-1.18685 0.48981,-1.85904 0.18123,-0.67218 0.39702,-1.88587 0.47954,-2.69708 0.0825,-0.81121 0.21158,-1.68953 0.2868,-1.95181 0.43849,-1.52894 0.44621,-10.77675 0.01,-11.94186 -0.0624,-0.16657 -0.19032,-0.97158 -0.28433,-1.78892 -0.094,-0.81733 -0.29017,-1.86818 -0.4359,-2.33523 -0.14574,-0.46705 -0.30863,-1.16762 -0.36199,-1.55682 -0.0534,-0.38921 -0.2159,-1.01253 -0.36121,-1.38515 -0.14532,-0.37263 -0.26421,-0.79304 -0.26421,-0.93425 0,-0.1412 -0.15185,-0.54233 -0.33744,-0.89138 -0.1856,-0.34906 -0.38387,-0.91582 -0.44062,-1.25947 -0.0567,-0.34365 -0.18561,-0.78404 -0.28636,-0.97864 -0.36062,-0.6965 -0.88943,-1.91973 -1.05054,-2.43006 -0.0902,-0.28568 -0.25627,-0.59599 -0.36904,-0.68959 -0.11278,-0.0936 -0.20525,-0.24199 -0.20549,-0.32976 -5.4e-4,-0.23554 -0.9028,-1.98515 -1.2535,-2.43098 -0.16659,-0.21179 -0.30289,-0.49396 -0.30289,-0.62703 0,-0.13308 -0.15914,-0.42701 -0.35365,-0.65318 -0.19451,-0.22617 -0.35373,-0.47045 -0.35382,-0.54285 -2.9e-4,-0.1692 -1.46592,-2.36434 -2.13285,-3.19431 -0.28147,-0.35029 -0.57125,-0.74681 -0.64395,-0.88116 -0.0727,-0.13435 -0.36694,-0.51647 -0.65387,-0.84917 -0.28693,-0.3327 -0.96138,-1.11441 -1.49876,-1.73714 -0.85285,-0.9883 -1.87577,-2.01992 -4.21007,-4.24589 -0.32652,-0.31136 -0.89907,-0.78902 -1.27233,-1.06146 -0.37327,-0.27245 -0.87418,-0.66702 -1.11313,-0.87683 -0.53913,-0.47337 -1.27127,-1.00203 -1.92051,-1.38676 -0.27245,-0.16144 -0.78195,-0.48134 -1.13224,-0.71089 -0.35028,-0.22954 -0.85979,-0.52711 -1.13223,-0.66126 -0.27245,-0.13414 -0.65457,-0.38097 -0.84918,-0.54852 -0.4183,-0.36014 -0.74117,-0.53458 -2.61829,-1.41466 -0.77842,-0.36495 -1.86112,-0.87521 -2.406,-1.13391 -0.54489,-0.2587 -1.24546,-0.51269 -1.55683,-0.56442 -0.31136,-0.0517 -0.70862,-0.18339 -0.88279,-0.29257 -0.38295,-0.24006 -2.74595,-1.04348 -3.06906,-1.04348 -0.12669,0 -0.5899,-0.12638 -1.02937,-0.28084 -0.43948,-0.15446 -1.4597,-0.37894 -2.26717,-0.49883 -0.80748,-0.1199 -1.86338,-0.30786 -2.34646,-0.4177 -0.88096,-0.20029 -6.00037,-0.48746 -7.45944,-0.41843 -0.42813,0.0203 -1.53012,0.072 -2.44888,0.11495 -2.10486,0.0984 -2.27667,0.20976 -1.69011,1.0952 1.47612,2.22827 1.88354,2.89413 2.34691,3.83571 0.29633,0.60216 0.59703,1.13083 0.66822,1.17482 0.0712,0.044 0.23374,0.44297 0.36122,0.88659 0.12749,0.44362 0.46867,1.539 0.75819,2.43418 0.89682,2.77285 1.1261,6.61121 0.62446,10.45372 -0.26348,2.01825 -0.21216,2.68496 0.25091,3.25966 0.18264,0.22667 0.52314,0.74291 0.75667,1.14721 0.23352,0.40429 0.56789,0.91325 0.74303,1.131 0.17514,0.21776 0.31857,0.45041 0.31872,0.51702 1.4e-4,0.0666 0.28676,0.55691 0.63689,1.08957 0.35012,0.53267 0.63659,1.01749 0.63659,1.07739 0,0.0599 0.19107,0.34934 0.42459,0.64319 0.23352,0.29385 0.42882,0.60513 0.43399,0.69173 0.005,0.0866 0.22506,0.44405 0.48865,0.79433 0.26359,0.35029 0.77042,1.14639 1.12629,1.76912 0.35587,0.62273 0.89451,1.52727 1.19698,2.01009 1.2733,2.03251 0.42351,4.11961 -1.77084,4.3492 -0.461,0.0482 -1.12479,0.17946 -1.47507,0.29161 -0.35028,0.11216 -1.0747,0.27763 -1.6098,0.36772 -1.61396,0.27173 -1.81194,0.72373 -1.06371,2.42852 0.56359,1.28408 0.54027,2.37849 -0.0608,2.85452 -1.02004,0.8078 -1.24912,0.93924 -1.88566,1.08192 -1.62331,0.36385 -2.47695,1.09588 -1.65276,1.41733 0.2196,0.0856 0.69526,0.30926 1.05702,0.4969 0.36176,0.18766 0.78944,0.34119 0.9504,0.34119 0.33492,0 1.24655,0.74843 1.34664,1.10557 0.28029,1.00014 0.26017,1.11227 -0.29341,1.6344 -0.53843,0.50785 -0.53843,0.50785 -0.57229,3.98831 -0.0461,4.73613 -0.62641,6.06762 -3.31728,7.61102 -0.36415,0.20887 -0.79658,0.37976 -0.96097,0.37976 -0.16438,0 -0.53924,0.12262 -0.83302,0.2725 -0.8446,0.43088 -3.96634,0.63172 -8.11527,0.52211 -3.8577,-0.10192 -4.24857,0.002 -4.62211,1.22925 -0.68446,2.24873 -0.87541,3.16604 -1.14007,5.4772 -0.16491,1.44006 -0.36331,3.86021 -0.4409,5.37812 -0.0776,1.5179 -0.17102,2.91904 -0.20764,3.11364 -0.10852,0.57677 -0.35353,3.70891 -0.50318,6.43268 -0.0768,1.39733 -0.20511,2.78392 -0.28518,3.08129 -0.22377,0.83101 0.0349,1.21057 1.22896,1.80329 2.21187,1.09795 3.53734,1.65551 4.2284,1.77868 0.31137,0.0555 0.78903,0.21724 1.06147,0.35943 0.5482,0.28612 2.12321,0.75675 3.53824,1.05726 0.50596,0.10746 1.23258,0.29339 1.6147,0.4132 0.38211,0.1198 0.88884,0.21782 1.12606,0.21782 0.23721,0 1.03911,0.0944 1.782,0.20983 2.72095,0.42269 3.53529,0.4751 6.65806,0.4285 2.3808,-0.0355 3.84516,-0.13656 5.80271,-0.40039 z m 18.31409,-20.32054 c -1.14052,-0.69548 -1.06224,-1.86648 0.21238,-3.17693 0.84861,-0.87246 1.38766,-1.53846 2.23699,-2.76379 0.2497,-0.36024 0.57199,-0.81419 0.7162,-1.0088 0.52665,-0.71067 1.69536,-2.77388 1.86283,-3.28858 0.0946,-0.29083 0.23257,-0.56618 0.30655,-0.6119 0.15989,-0.0988 0.97708,-1.86605 0.97708,-2.11302 0,-0.0944 0.15921,-0.47108 0.35382,-0.83708 0.1946,-0.366 0.35382,-0.75736 0.35382,-0.86969 0,-0.11234 0.12636,-0.57071 0.28079,-1.0186 0.47861,-1.3881 0.88784,-3.03803 0.99182,-3.99878 0.56145,-5.18781 0.59807,-5.85521 0.42708,-7.78382 -0.0932,-1.05102 -0.22292,-2.57677 -0.28832,-3.39055 -0.11651,-1.44981 -0.40414,-2.72909 -1.07568,-4.78432 -0.18463,-0.56504 -0.33569,-1.14068 -0.33569,-1.27922 0,-0.13853 -0.12737,-0.50172 -0.28305,-0.80709 -0.15569,-0.30536 -0.28307,-0.62185 -0.28307,-0.70331 0,-0.0815 -0.15099,-0.4342 -0.33554,-0.78387 -0.18455,-0.34967 -0.38314,-0.79498 -0.44133,-0.98958 -0.0582,-0.1946 -0.19211,-0.45252 -0.29761,-0.57315 -0.1055,-0.12062 -0.28107,-0.47227 -0.39015,-0.78143 -0.10908,-0.30916 -0.34959,-0.79101 -0.53446,-1.07078 -0.18488,-0.27977 -0.62274,-0.96677 -0.97302,-1.52666 -0.35029,-0.5599 -1.44879,-2.01737 -2.44111,-3.23884 -1.88732,-2.32314 -1.98493,-2.52455 -1.7139,-3.53639 0.0905,-0.33784 0.971,-0.87816 1.43105,-0.87816 0.51721,0 4.13925,3.69213 4.13925,4.21934 0,0.071 0.17515,0.35863 0.38921,0.6391 0.21406,0.28048 0.51658,0.6812 0.67226,0.89048 0.31456,0.42287 1.21366,1.97707 1.58672,2.74284 0.13273,0.27245 0.34934,0.62273 0.48136,0.77842 0.13201,0.15568 0.30437,0.50596 0.38302,0.77841 0.0786,0.27244 0.37887,1.0367 0.66716,1.69835 0.2883,0.66165 0.6073,1.50059 0.70891,1.86431 0.10161,0.36372 0.2476,0.77877 0.32444,0.92234 0.21221,0.39654 0.88293,3.08403 1.08827,4.36058 0.10016,0.62273 0.29307,1.54622 0.42867,2.05218 0.36078,1.34612 0.37376,9.02888 0.0172,10.18275 -0.13105,0.42408 -0.33461,1.36976 -0.45236,2.10152 -0.11775,0.73176 -0.28076,1.45504 -0.36224,1.60728 -0.0815,0.15225 -0.21147,0.6714 -0.28888,1.15366 -0.0774,0.48227 -0.26378,1.13161 -0.41416,1.44297 -0.15039,0.31136 -0.33273,0.82087 -0.40522,1.13224 -0.15439,0.66321 -0.81351,2.28337 -1.09237,2.68516 -0.10657,0.15354 -0.19416,0.37645 -0.19464,0.49536 -4.3e-4,0.1189 -0.10462,0.40724 -0.23142,0.64077 -0.1268,0.23352 -0.47921,0.90001 -0.78313,1.48109 -0.30392,0.58107 -0.63583,1.15426 -0.73759,1.27376 -0.10175,0.1195 -0.4238,0.59939 -0.71566,1.06644 -0.94298,1.509 -1.1571,1.78991 -3.11772,4.09019 -1.61577,1.89571 -1.94062,2.06846 -2.84858,1.5148 z m -7.48709,-8.07231 c -0.47991,-0.13599 -0.73223,-0.34354 -1.04382,-0.85862 -0.42118,-0.69625 -0.40438,-0.75225 0.58822,-1.96067 1.38467,-1.68571 2.50034,-3.23322 2.5052,-3.47485 0.002,-0.0705 0.14587,-0.32525 0.32101,-0.56612 0.56842,-0.78173 1.61971,-3.09496 1.80027,-3.96125 0.0666,-0.31958 0.24797,-0.96318 0.40301,-1.43023 0.97314,-2.9315 0.89471,-9.0376 -0.14818,-11.53606 -0.11339,-0.27167 -0.25322,-0.74511 -0.31071,-1.0521 -0.0575,-0.30698 -0.22117,-0.78465 -0.36373,-1.06147 -0.46675,-0.90632 -0.99145,-2.06175 -0.99145,-2.18326 0,-0.0655 -0.15922,-0.30829 -0.35382,-0.53957 -0.1946,-0.23127 -0.35383,-0.50692 -0.35383,-0.61255 0,-0.10564 -0.31844,-0.58885 -0.70765,-1.07381 -0.3892,-0.48496 -0.70764,-0.95392 -0.70764,-1.04212 0,-0.0882 -0.26283,-0.41213 -0.58406,-0.71983 -1.39746,-1.3386 -1.59085,-2.09472 -0.76086,-2.97477 0.96558,-1.02382 2.35167,-0.33917 3.84545,1.89945 0.29321,0.43941 0.60448,0.8626 0.69171,0.94045 0.13203,0.11782 1.04119,1.55624 1.47599,2.33523 0.84302,1.51036 2.18019,5.08543 2.35565,6.29806 0.045,0.31137 0.1781,0.88456 0.29566,1.27376 0.68513,2.26822 0.21514,9.67911 -0.77763,12.26184 -0.16044,0.41738 -0.48999,1.28629 -0.73233,1.93092 -1.00283,2.66749 -2.4033,4.87889 -4.74811,7.49741 -0.43748,0.48854 -1.18272,0.75628 -1.69835,0.61016 z m -8.61449,-8.6397 c -0.20495,-0.3097 -0.37263,-0.74134 -0.37263,-0.95922 0,-0.42842 0.0867,-0.57757 1.22786,-2.1131 2.95128,-3.97106 2.5532,-9.7216 -0.90942,-13.13723 -0.82596,-0.81476 -0.0239,-2.48152 1.18885,-2.47036 0.69665,0.006 1.03843,0.20206 1.70472,0.97583 0.82592,0.95917 2.30764,3.62215 2.30764,4.14736 0,0.11766 0.13498,0.51909 0.29996,0.89204 0.77188,1.74499 0.44381,6.63727 -0.59757,8.91112 -1.71611,3.74709 -3.79092,5.35304 -4.84941,3.75356 z"
       id="path13043-0"
       clip-path="url(#clipPath15385)" /><path
       style="fill:#ffffff;fill-opacity:1;stroke:#fefced;stroke-width:0;stroke-dasharray:none;stroke-opacity:1"
       d="m 363.16883,539.46419 c -0.20495,-0.3097 -0.37263,-0.74134 -0.37263,-0.95922 0,-0.42842 0.0867,-0.57757 1.22786,-2.1131 2.95128,-3.97106 2.5532,-9.7216 -0.90942,-13.13723 -0.82596,-0.81476 -0.0239,-2.48152 1.18885,-2.47036 0.69665,0.006 1.03843,0.20206 1.70472,0.97583 0.82592,0.95917 2.30764,3.62215 2.30764,4.14736 0,0.11766 0.13498,0.51909 0.29996,0.89204 0.77188,1.74499 0.44381,6.63727 -0.59757,8.91112 -1.71611,3.74709 -3.79092,5.35304 -4.84941,3.75356 z"
       id="path13107-9" /><path
       style="fill:#ffffff;fill-opacity:1;stroke:#fefced;stroke-width:0;stroke-dasharray:none;stroke-opacity:1"
       d="m 371.78332,548.10389 c -0.47991,-0.13599 -0.73223,-0.34354 -1.04382,-0.85862 -0.42118,-0.69625 -0.40438,-0.75225 0.58822,-1.96067 1.38467,-1.68571 2.50034,-3.23322 2.5052,-3.47485 0.002,-0.0705 0.14587,-0.32525 0.32101,-0.56612 0.56842,-0.78173 1.61971,-3.09496 1.80027,-3.96125 0.0666,-0.31958 0.24797,-0.96318 0.40301,-1.43023 0.97314,-2.9315 0.89471,-9.0376 -0.14818,-11.53606 -0.11339,-0.27167 -0.25322,-0.74511 -0.31071,-1.0521 -0.0575,-0.30698 -0.22117,-0.78465 -0.36373,-1.06147 -0.46675,-0.90632 -0.99145,-2.06175 -0.99145,-2.18326 0,-0.0655 -0.15922,-0.30829 -0.35382,-0.53957 -0.1946,-0.23127 -0.35383,-0.50692 -0.35383,-0.61255 0,-0.10564 -0.31844,-0.58885 -0.70765,-1.07381 -0.3892,-0.48496 -0.70764,-0.95392 -0.70764,-1.04212 0,-0.0882 -0.26283,-0.41213 -0.58406,-0.71983 -1.39746,-1.3386 -1.59085,-2.09472 -0.76086,-2.97477 0.96558,-1.02382 2.35167,-0.33917 3.84545,1.89945 0.29321,0.43941 0.60448,0.8626 0.69171,0.94045 0.13203,0.11782 1.04119,1.55624 1.47599,2.33523 0.84302,1.51036 2.18019,5.08543 2.35565,6.29806 0.045,0.31137 0.1781,0.88456 0.29566,1.27376 0.68513,2.26822 0.21514,9.67911 -0.77763,12.26184 -0.16044,0.41738 -0.48999,1.28629 -0.73233,1.93092 -1.00283,2.66749 -2.4033,4.87889 -4.74811,7.49741 -0.43748,0.48854 -1.18272,0.75628 -1.69835,0.61016 z"
       id="path13105-3" /><path
       style="fill:#ffffff;fill-opacity:1;stroke:#fefced;stroke-width:0;stroke-dasharray:none;stroke-opacity:1"
       d="m 379.27041,556.1762 c -1.14052,-0.69548 -1.06224,-1.86648 0.21238,-3.17693 0.84861,-0.87246 1.38766,-1.53846 2.23699,-2.76379 0.2497,-0.36024 0.57199,-0.81419 0.7162,-1.0088 0.52665,-0.71067 1.69536,-2.77388 1.86283,-3.28858 0.0946,-0.29083 0.23257,-0.56618 0.30655,-0.6119 0.15989,-0.0988 0.97708,-1.86605 0.97708,-2.11302 0,-0.0944 0.15921,-0.47108 0.35382,-0.83708 0.1946,-0.366 0.35382,-0.75736 0.35382,-0.86969 0,-0.11234 0.12636,-0.57071 0.28079,-1.0186 0.47861,-1.3881 0.88784,-3.03803 0.99182,-3.99878 0.56145,-5.18781 0.59807,-5.85521 0.42708,-7.78382 -0.0932,-1.05102 -0.22292,-2.57677 -0.28832,-3.39055 -0.11651,-1.44981 -0.40414,-2.72909 -1.07568,-4.78432 -0.18463,-0.56504 -0.33569,-1.14068 -0.33569,-1.27922 0,-0.13853 -0.12737,-0.50172 -0.28305,-0.80709 -0.15569,-0.30536 -0.28307,-0.62185 -0.28307,-0.70331 0,-0.0815 -0.15099,-0.4342 -0.33554,-0.78387 -0.18455,-0.34967 -0.38314,-0.79498 -0.44133,-0.98958 -0.0582,-0.1946 -0.19211,-0.45252 -0.29761,-0.57315 -0.1055,-0.12062 -0.28107,-0.47227 -0.39015,-0.78143 -0.10908,-0.30916 -0.34959,-0.79101 -0.53446,-1.07078 -0.18488,-0.27977 -0.62274,-0.96677 -0.97302,-1.52666 -0.35029,-0.5599 -1.44879,-2.01737 -2.44111,-3.23884 -1.88732,-2.32314 -1.98493,-2.52455 -1.7139,-3.53639 0.0905,-0.33784 0.971,-0.87816 1.43105,-0.87816 0.51721,0 4.13925,3.69213 4.13925,4.21934 0,0.071 0.17515,0.35863 0.38921,0.6391 0.21406,0.28048 0.51658,0.6812 0.67226,0.89048 0.31456,0.42287 1.21366,1.97707 1.58672,2.74284 0.13273,0.27245 0.34934,0.62273 0.48136,0.77842 0.13201,0.15568 0.30437,0.50596 0.38302,0.77841 0.0786,0.27244 0.37887,1.0367 0.66716,1.69835 0.2883,0.66165 0.6073,1.50059 0.70891,1.86431 0.10161,0.36372 0.2476,0.77877 0.32444,0.92234 0.21221,0.39654 0.88293,3.08403 1.08827,4.36058 0.10016,0.62273 0.29307,1.54622 0.42867,2.05218 0.36078,1.34612 0.37376,9.02888 0.0172,10.18275 -0.13105,0.42408 -0.33461,1.36976 -0.45236,2.10152 -0.11775,0.73176 -0.28076,1.45504 -0.36224,1.60728 -0.0815,0.15225 -0.21147,0.6714 -0.28888,1.15366 -0.0774,0.48227 -0.26378,1.13161 -0.41416,1.44297 -0.15039,0.31136 -0.33273,0.82087 -0.40522,1.13224 -0.15439,0.66321 -0.81351,2.28337 -1.09237,2.68516 -0.10657,0.15354 -0.19416,0.37645 -0.19464,0.49536 -4.3e-4,0.1189 -0.10462,0.40724 -0.23142,0.64077 -0.1268,0.23352 -0.47921,0.90001 -0.78313,1.48109 -0.30392,0.58107 -0.63583,1.15426 -0.73759,1.27376 -0.10175,0.1195 -0.4238,0.59939 -0.71566,1.06644 -0.94298,1.509 -1.1571,1.78991 -3.11772,4.09019 -1.61577,1.89571 -1.94062,2.06846 -2.84858,1.5148 z"
       id="path13103-4" /></g></svg>
